<?xml version="1.0" encoding="UTF-8"?>
<svg id="Layer_1" xmlns="http://www.w3.org/2000/svg" xmlns:xlink="http://www.w3.org/1999/xlink" version="1.1" viewBox="0 0 252 70">
  <!-- Generator: Adobe Illustrator 29.5.1, SVG Export Plug-In . SVG Version: 2.1.0 Build 141)  -->
  <defs>
    <style>
      .st0 {
        fill: none;
      }

      .st1 {
        fill: #1a0081;
      }

      .st2 {
        clip-path: url(#clippath-1);
      }

      .st3 {
        clip-path: url(#clippath);
      }
    </style>
    <clipPath id="clippath">
      <path class="st0" d="M87.3,47.8v-.2c0-1.1.8-2.1,1.9-2.2.1,0,.3,0,.4,0,1.4,0,2.3.7,2.3,2.8,0,.7,0,1.4-.2,2.2l2.9.2c.1-.9.2-1.8.2-2.7,0-3.2-1.6-5.4-5.3-5.4s-5.8,2.7-5.8,5.3v.2c0,2.8,2,5.2,4.4,7.5,2.7,2.7,3.5,3.7,3.5,5.4v.4c.1,1.2-.7,2.3-1.9,2.4-.2,0-.3,0-.5,0-1.4,0-2.5-.9-2.5-2.8,0-.8,0-1.5.2-2.3l-2.9-.2c-.2.9-.3,1.7-.3,2.6,0,3.7,1.9,5.6,5.5,5.6s5.9-2.2,5.9-5.7v-.3c0-2.4-1-4.4-4.9-8.3-2.2-2.2-3-3.1-3-4.6h0ZM92.4,28.8c0,1.8-.6,3-2.3,3s-2.3-1.3-2.3-2.7v-12.8c0-1.7.6-2.8,2.2-2.8s2.3.6,2.3,3.1c0,.7,0,1.5-.2,2.2l3,.2c.2-.9.2-1.8.2-2.7,0-3.9-2-5.8-5.2-5.8s-5.8,1.7-5.8,6.2v11.9c0,4.4,1.9,6.1,5.1,6.1,1.6,0,3.2-.8,4-2.3h.1l1.1,1.9h1.4v-11.1h-3.5v5.7ZM60.2,3.4C54.3,0,47.3-.9,40.8.9c-1.5.4-3,1-4.4,1.6C33,.9,29.3,0,25.5,0,11.4,0,0,11.4,0,25.5c0,8.4,4.1,16.3,11.1,21,.3,3.8,1.4,7.4,3.3,10.7,4.6,7.9,13,12.8,22.1,12.7,4.5,0,8.8-1.2,12.7-3.4,5.9-3.4,10.2-8.9,11.9-15.5.4-1.5.7-3.1.8-4.6,3.1-2.1,5.7-4.9,7.6-8.2,7-12.2,2.9-27.8-9.3-34.8h0ZM36.5,6.9c5.3,3.1,9,8.3,10.2,14.3-6.5-2.9-13.9-2.9-20.4,0,.4-2.2,1.2-4.4,2.4-6.4,1.9-3.2,4.6-5.9,7.8-7.8h0ZM47.1,25.7c0,7.6-4.1,14.6-10.7,18.5-4.9-2.9-8.5-7.6-9.9-13-.5-1.8-.7-3.6-.7-5.5,6.6-3.7,14.7-3.7,21.3,0h0ZM11.1,41.7c-4.6-4.1-7.3-10-7.3-16.2,0-11.9,9.7-21.6,21.6-21.6,2.3,0,4.6.4,6.8,1.1-2.8,2.1-5.2,4.7-7,7.8-1.9,3.3-3,7-3.3,10.7-6.1,4.2-10,10.8-10.9,18.2h0ZM22.1,28.3c.1,1.3.4,2.6.7,3.8,1.5,5.6,4.9,10.5,9.5,13.9-2.2.7-4.5,1.1-6.8,1.1-3.7,0-7.4-1-10.7-2.8,0-6.1,2.7-11.9,7.2-16h0ZM57.4,50.1c-1.5,5.6-5.1,10.3-10.1,13.1-10.4,6-23.6,2.4-29.6-7.9-1.2-2-2-4.2-2.4-6.5,3.2,1.4,6.7,2.2,10.2,2.2,3.8,0,7.6-.9,11-2.5,3.4,1.6,7.1,2.5,10.9,2.5,3.5,0,7-.7,10.2-2.2,0,.4,0,.8-.2,1.2h0ZM40.6,46c5.8-4.2,9.5-10.6,10.3-17.7,1.7,1.5,3.2,3.3,4.4,5.3,1.9,3.3,2.8,6.9,2.8,10.7-5.3,3-11.7,3.6-17.5,1.7h0ZM66.1,36.3c-1.2,2-2.6,3.8-4.4,5.3-.4-3.5-1.5-6.9-3.3-9.9-1.9-3.3-4.5-6.1-7.6-8.2-.6-7.3-4.3-14.1-10.3-18.5.4-.1.8-.3,1.2-.4,5.5-1.5,11.5-.7,16.4,2.2,10.3,6,13.9,19.2,7.9,29.6h0ZM108.9,31.2h-6v-7.7h5.1v-3h-5.1v-6.7h5.9v-3h-9.4v23.5h9.5v-3ZM178.4,34.6c3.1,0,5.9-1.7,5.9-6v-12.1c0-4.5-2.7-6.1-5.9-6.1s-6,1.7-6,6.1v12.1c0,4.3,2.7,6,6,6ZM176,16c0-1.7,1-2.6,2.4-2.6,1.3,0,2.3,1,2.3,2.3,0,0,0,.2,0,.3v12.9c0,1.6-.9,2.7-2.3,2.7-1.3,0-2.4-1-2.4-2.3,0-.1,0-.2,0-.3v-12.9ZM104.3,42.5c-3.2,0-6,1.7-6,6.1v12.1c0,4.3,2.7,6,6,6s5.9-1.7,5.9-6v-12.1c0-4.5-2.7-6.1-5.9-6.1ZM106.6,61.1c0,1.6-.9,2.7-2.3,2.7-1.3,0-2.4-1-2.4-2.3,0-.1,0-.2,0-.3v-12.9c0-1.7,1-2.6,2.4-2.6,1.3,0,2.3,1,2.3,2.3,0,0,0,.2,0,.3v12.9ZM201.3,42.9l-4.1,23.5h3.2l.5-3.5h4.4l.6,3.5h3.6l-4.2-23.5h-4ZM201.3,59.8l1.6-12.2h.2l1.8,12.2h-3.5ZM198.6,30.6c0-.6,0-1.5,0-2.2,0-3.1-.7-4.8-3.1-5.4v-.2c2.6-.7,3.6-2.8,3.6-6.2s-2.3-6-5.5-6h-5.8v23.5h3.5v-9.6h1.3c1.9,0,2.2,1.2,2.3,4.1,0,1.5,0,2.6.1,4.3,0,.4,0,.8.2,1.2h3.8c-.4-1.1-.5-2.3-.4-3.5h0ZM192.9,21.7h-1.5v-8h1.6c1.6,0,2.6.8,2.6,3.7s-1.1,4.3-2.7,4.3h0ZM190.7,53h-5v-10.1h-3.5v23.5h3.5v-10.3h5v10.3h3.5v-23.5h-3.5v10.1ZM220.7,56.1h-.1l-4.7-13.3h-3.4v23.5h3.2v-14.6h.1l5.2,14.6h3v-23.5h-3.2v13.3ZM246,63.3v-7.7h5.1v-3h-5.1v-6.7h5.9v-3h-9.4v23.5h9.5v-3h-6ZM235.5,60.9c0,1.8-.6,3-2.3,3s-2.3-1.3-2.3-2.7v-12.8c0-1.7.6-2.8,2.2-2.8s2.3.6,2.3,3.1c0,.7,0,1.5-.2,2.2l3,.2c.2-.9.2-1.8.2-2.7,0-3.9-2-5.8-5.2-5.8s-5.8,1.7-5.8,6.2v11.9c0,4.4,1.9,6.1,5.1,6.1,1.6,0,3.2-.8,4-2.3h.1l1,1.9h1.4v-11.1h-3.5v5.7ZM178.8,50.8c.1-1,.2-1.9.2-2.9,0-4-2.2-5.4-5.3-5.4s-5.7,1.7-5.7,6.4v11.7c0,4.6,2.5,6.2,5.6,6.2s5.3-1.4,5.3-5.4c0-1,0-2-.2-2.9l-2.9.2c.1.7.2,1.4.2,2.1,0,2.2-.7,3-2.1,3s-2.3-1-2.3-2.6v-13.2c-.1-1.3.8-2.4,2.1-2.5,0,0,.2,0,.3,0,1.4,0,2.1.7,2.1,3,0,.7,0,1.4-.2,2.1l3,.2ZM138.3,42.9l-4.1,23.5h3.2l.5-3.5h4.4l.6,3.5h3.6l-4.2-23.5h-4ZM138.3,59.8l1.6-12.2h.2l1.8,12.2h-3.5ZM133.1,19.9l3.8-9.2h-3.5l-5,12.7h0v-12.7h-3.5v23.5h3.5v-5.8l2.5-4.5,2.5,10.3h3.7l-4-14.3ZM127.7,66.3h3.5v-23.5h-3.5v23.5ZM124.4,50.8c.1-1,.2-1.9.2-2.9,0-4-2.2-5.4-5.3-5.4s-5.7,1.7-5.7,6.4v11.7c0,4.6,2.5,6.2,5.6,6.2s5.3-1.4,5.3-5.4c0-1,0-2-.2-2.9l-2.9.2c.1.7.2,1.4.2,2.1,0,2.2-.7,3-2.1,3s-2.3-1-2.3-2.6v-13.2c-.1-1.3.8-2.4,2.1-2.5,0,0,.2,0,.3,0,1.4,0,2.1.7,2.1,3,0,.7,0,1.4-.2,2.1l3,.2ZM152.9,42.9h-3.5v23.5h9.5v-3h-6v-20.5ZM168.8,21.3h-5.1v-7.6h5.9v-3h-9.4v23.5h3.5v-9.9h5.1v-3ZM121.6,31.2h-6v-7.7h5.1v-3h-5.1v-6.7h5.9v-3h-9.4v23.5h9.5v-3ZM150.6,28.6c0-2.4-1-4.4-4.9-8.3-2.2-2.2-3-3.1-3-4.6v-.2c0-1.1.8-2.1,1.9-2.2.1,0,.3,0,.4,0,1.5,0,2.3.7,2.3,2.8,0,.7,0,1.5-.2,2.2l2.9.2c.1-.9.2-1.8.2-2.7,0-3.2-1.6-5.4-5.3-5.4s-5.8,2.7-5.8,5.3v.2c0,2.8,2,5.2,4.4,7.5,2.7,2.7,3.5,3.7,3.5,5.4v.4c.1,1.2-.7,2.3-1.9,2.4-.2,0-.3,0-.5,0-1.4,0-2.5-.9-2.5-2.8,0-.8,0-1.5.2-2.3l-2.9-.2c-.2.9-.3,1.7-.3,2.6,0,3.7,1.9,5.6,5.5,5.6s5.9-2.2,5.9-5.7v-.3Z"/>
    </clipPath>
    <clipPath id="clippath-1">
      <rect class="st0" x="-136.2" y="-655.6" width="1924.1" height="1329.8"/>
    </clipPath>
  </defs>
  <g class="st3">
    <g id="Group_4813">
      <g class="st2">
        <path id="Path_5136" class="st1" d="M-8.5-8.5h269v87H-8.5V-8.5Z"/>
      </g>
    </g>
  </g>
</svg>