<?xml version="1.0" encoding="UTF-8"?>
<svg id="Group_4814" xmlns="http://www.w3.org/2000/svg" version="1.1" viewBox="0 0 249.7 73.5">
  <!-- Generator: Adobe Illustrator 29.5.1, SVG Export Plug-In . SVG Version: 2.1.0 Build 141)  -->
  <defs>
    <style>
      .st0 {
        fill: #1a0081;
      }
    </style>
  </defs>
  <g id="Group_334">
    <path id="Path_753" class="st0" d="M137.5,50c-.3-.2-.6-.6-.6-1-.1-.9-.2-1.8-.2-2.7v-6.7c0-3.5-.8-6-2.3-7.6-1.5-1.6-3.7-2.4-6.6-2.4-3.1,0-6.2.8-8.9,2.2l.5,5c1.1-.6,2.3-1.1,3.6-1.4,1-.3,2.1-.4,3.2-.4,1.2-.1,2.4.2,3.3.9.8.9,1.2,2,1.1,3.1-2,0-4.1.4-6,.9-2,.5-3.9,1.4-5.4,2.8-1.5,1.3-2.4,3.2-2.3,5.2-.1,2,.6,4,2,5.4,1.3,1.3,3.2,2.1,5.1,2,1.5,0,2.9-.3,4.3-.8,1.2-.4,2.3-1.1,3.2-2.1.5.9,1.2,1.6,2.1,2.1,1,.5,2.2.8,3.4.8h2.2l.5-5h-.8c-.5,0-1,0-1.4-.2ZM130.7,48.8c-.6.6-1.3,1-2.1,1.3-.7.3-1.4.4-2.1.5-.9,0-1.8-.2-2.5-.7-.6-.6-.9-1.4-.8-2.2,0-1.4.9-2.7,2.3-3.2,1.6-.8,3.4-1.2,5.2-1.3v5.6ZM112.5,49.1c-.2-.9-.3-1.9-.2-2.8v-28.6h-6.1v31.1c0,1.7.5,3.4,1.6,4.7,1.2,1.3,2.9,1.9,4.7,1.8h2.2l.5-5c-.7,0-1.3,0-1.9-.2-.4-.2-.7-.5-.8-1h0ZM91.3,20.2h-12.2v34.6h6.3v-12h6.1c3.9,0,6.9-.9,9-2.8s3.1-4.7,3.1-8.6c0-7.5-4.1-11.2-12.2-11.2ZM95.6,36c-1.4,1.1-3.1,1.6-4.8,1.5h-5.3v-12h5.2c1.8-.1,3.5.4,5,1.5,1.2,1.2,1.8,2.9,1.6,4.5.1,1.7-.4,3.3-1.6,4.5ZM236.1,50c-.3-.2-.6-.6-.6-1-.1-.9-.2-1.8-.2-2.7v-6.7c0-3.5-.8-6-2.3-7.6-1.5-1.6-3.7-2.4-6.6-2.4-3.1,0-6.2.8-8.9,2.2l.5,5c1.1-.6,2.3-1.1,3.6-1.4,1-.3,2.1-.4,3.2-.4,1.2-.1,2.4.2,3.3.9.8.9,1.2,2,1.1,3.1-2,0-4.1.4-6,.9-2,.5-3.9,1.4-5.4,2.8-1.5,1.3-2.4,3.2-2.3,5.2-.1,2,.6,4,2,5.4,1.3,1.3,3.2,2.1,5.1,2,1.5,0,2.9-.3,4.3-.8,1.2-.4,2.3-1.1,3.2-2.1.5.9,1.2,1.6,2.1,2.1,1,.5,2.2.8,3.4.8h2.2l.5-5h-.8c-.5,0-1,0-1.4-.2h0ZM229.2,48.8c-.6.6-1.3,1-2.1,1.3-.7.3-1.4.4-2.1.5-.9,0-1.8-.2-2.5-.7-.6-.6-.9-1.4-.8-2.2,0-1.4.9-2.7,2.3-3.2,1.6-.8,3.4-1.2,5.2-1.3v5.6ZM247.7,50.1c-.4-.2-.7-.5-.8-1-.2-.9-.3-1.9-.2-2.8v-28.6h-6.1v31.1c0,1.7.5,3.4,1.6,4.7,1.2,1.3,2.9,1.9,4.7,1.8h2.2l.5-5c-.6,0-1.3,0-1.9-.2h0ZM204.7,25.6c1.4,0,2.8.2,4.2.5,1.4.4,2.7.9,4,1.5l.7-6c-2.8-1.4-5.8-2.1-8.9-2-3.2,0-6.4.7-9.2,2.2-2.7,1.5-4.9,3.7-6.3,6.3-1.6,2.9-2.3,6.1-2.3,9.4,0,3.3.7,6.5,2.2,9.5,1.4,2.7,3.6,4.8,6.2,6.3,2.8,1.5,6,2.3,9.2,2.2,3.1,0,6.2-.7,9.1-2l-.7-6c-1.3.6-2.7,1.1-4.1,1.5-1.4.3-2.8.5-4.2.5-3.5,0-6.1-1.1-8-3.3-1.9-2.5-2.9-5.5-2.8-8.7-.2-3.1.8-6.2,2.8-8.6,1.9-2.2,4.6-3.3,8.1-3.3h0ZM154,50.2c-2,0-4-.7-5.3-2.2-2.7-3.3-2.7-7.9,0-11.2,1.4-1.5,3.4-2.2,5.4-2.1,1.9,0,3.8.5,5.5,1.4l.5-4.9c-2-1.1-4.3-1.6-6.6-1.6-2.5,0-5,.5-7.2,1.7-1.9,1.1-3.4,2.7-4.4,4.6-1,2-1.5,4.3-1.5,6.6,0,2.2.5,4.5,1.5,6.5,1,1.9,2.5,3.5,4.4,4.6,2.1,1.2,4.5,1.8,7,1.7,1.3,0,2.5-.1,3.8-.4,1.1-.2,2.1-.6,3.1-1.1l-.5-5.2c-1.7,1-3.6,1.6-5.6,1.6h0ZM179.5,31.1c-1.8-1-3.8-1.5-5.8-1.4-2.3,0-4.5.5-6.4,1.7-1.8,1.1-3.2,2.7-4.1,4.6-1,2-1.4,4.1-1.4,6.3,0,2.3.5,4.5,1.5,6.5,1,2,2.6,3.6,4.5,4.7,2.2,1.2,4.7,1.8,7.3,1.8,1.5,0,3.1-.2,4.5-.5,1.3-.3,2.5-.8,3.7-1.4l-.3-5.2c-2.2,1.3-4.8,2-7.4,2-1.8,0-3.5-.5-5-1.6-1.5-1.2-2.4-3-2.5-4.9h15.8c.2-1.1.4-2.2.4-3.4,0-1.9-.4-3.7-1.2-5.4-.8-1.6-2-2.9-3.6-3.9h0ZM168.2,39.6c.3-1.3.9-2.6,1.9-3.6,1-.9,2.3-1.4,3.6-1.3,1.3,0,2.5.5,3.3,1.5.7,1,1.1,2.2,1.1,3.4h-9.9Z"/>
    <path id="Path_754" class="st0" d="M37.9,23.1l-3.8-3.8-5.6,5.7-2.7-2.7-3.8,3.8,2.7,2.7,3.1,3.2.6.6,2.8-2.8,6.6-6.6Z"/>
  </g>
  <g id="Group_332">
    <path id="Path_755" class="st0" d="M28.5,46.2c-9.6,0-17.5-7.7-17.6-17.3,0-9.6,7.7-17.5,17.3-17.6,9.6,0,17.5,7.7,17.6,17.3,0,0,0,0,0,.1,0,9.6-7.7,17.4-17.3,17.5M28.5,0C12.7,0,0,12.9,0,28.8c0,25.2,28.5,44.7,28.5,44.7,0,0,28.5-19.5,28.5-44.7C57.1,12.9,44.4,0,28.5,0"/>
  </g>
</svg>