<?xml version="1.0" encoding="UTF-8"?>
<svg id="Group_4957" xmlns="http://www.w3.org/2000/svg" xmlns:xlink="http://www.w3.org/1999/xlink" version="1.1" viewBox="0 0 192 24.6">
  <!-- Generator: Adobe Illustrator 29.5.1, SVG Export Plug-In . SVG Version: 2.1.0 Build 141)  -->
  <defs>
    <style>
      .st0 {
        fill: none;
      }

      .st1 {
        fill: #1a0081;
      }

      .st2 {
        clip-path: url(#clippath);
      }
    </style>
    <clipPath id="clippath">
      <rect class="st0" width="192" height="24.6"/>
    </clipPath>
  </defs>
  <g class="st2">
    <path id="Path_5155" class="st1" d="M4.5,11.4c-.2-.2-.4-.4-.7-.5-.3-.1-.6-.2-.9-.2H0v6.7h1.8v-2h1.1c.3,0,.6,0,.9-.2.3-.1.5-.3.7-.5.4-.4.6-1,.6-1.6,0-.3,0-.6-.2-.8-.1-.3-.3-.5-.5-.7M3.1,13.5c0,0-.2.2-.3.2h-1v-1.4h.9c.1,0,.2,0,.3.1.1.2.2.4.2.6,0,.2,0,.4-.1.6M41.1,14.7h2.4v-1.5h-2.4v-.9h2.8v-1.6h-4.7v6.7h4.8v-1.6h-2.9v-1ZM20.6,15.2l-.5-1.4,1.1-3.2h-1.7l-.6,2.1-.6-2.1h-1.7l1.1,3.2-.5,1.4-1.4-4.6h-2l2.6,6.7h1.5l.9-2.4.9,2.4h1.5l2.6-6.7h-2l-1.4,4.6ZM27.2,14.7h2.4v-1.5h-2.4v-.9h2.8v-1.6h-4.7v6.7h4.8v-1.6h-2.9v-1ZM37.1,14c.2-.3.3-.7.3-1.1,0-.3,0-.6-.2-.8-.1-.3-.3-.5-.5-.7-.2-.2-.4-.4-.7-.5-.3-.1-.6-.2-.9-.2h-3.1v6.7h1.8v-2h.7l1.2,2h2.1l-1.4-2.4c.3-.2.5-.5.7-.8M35.3,13.5c0,.1-.2.2-.3.2h-1.2v-1.4h1.1c.1,0,.3,0,.3.2.1.1.2.3.2.5,0,.2,0,.4-.1.5M12.2,11.7c-.3-.3-.7-.6-1.1-.8-.4-.2-.9-.3-1.4-.3-.5,0-.9,0-1.4.3-.4.2-.8.4-1.1.7-.3.3-.5.7-.7,1.1-.2.4-.3.8-.3,1.3,0,.4,0,.9.2,1.3.2.4.4.8.7,1.1.3.3.7.6,1.1.8.4.2.9.3,1.4.3.5,0,.9,0,1.4-.3.4-.2.8-.4,1.1-.7.3-.3.5-.7.7-1.1.2-.4.3-.8.3-1.3,0-.4,0-.9-.2-1.2-.2-.4-.4-.8-.7-1.1M11.2,14.6c0,.2-.1.4-.3.6-.1.2-.3.3-.5.4-.4.2-.9.2-1.4,0-.2,0-.3-.2-.5-.4-.1-.2-.2-.4-.3-.6,0-.2,0-.4,0-.7,0-.2,0-.4,0-.6,0-.2.2-.4.3-.6.1-.2.3-.3.5-.4.6-.3,1.4-.2,1.8.4.1.2.2.4.3.6,0,.2,0,.4,0,.7,0,.2,0,.4,0,.6M146,8.7c-1.2-.7-2.5-1-3.8-.9-1.5,0-2.9.3-4.2,1.1-1.2.7-2.1,1.7-2.7,3-.6,1.3-1,2.7-.9,4.1,0,1.5.3,2.9,1,4.3.7,1.3,1.7,2.3,3,3.1,1.5.8,3.1,1.2,4.8,1.1,1,0,2-.1,3-.3.8-.2,1.6-.5,2.4-.9l-.2-3.4c-1.5.9-3.1,1.3-4.8,1.3-1.2,0-2.3-.3-3.2-1-1-.8-1.6-1.9-1.7-3.2h10.4c.2-.7.2-1.5.3-2.2,0-1.2-.3-2.4-.8-3.5-.5-1-1.3-1.9-2.4-2.5M138.6,14.2c.2-.9.6-1.7,1.2-2.3.6-.6,1.5-.9,2.4-.9.8,0,1.7.3,2.2,1,.5.6.7,1.4.7,2.2h-6.5ZM162.5,5.1c.9,0,1.9.1,2.7.3.9.2,1.8.6,2.7.9l.4-3.9c-1.8-.9-3.8-1.4-5.8-1.3-2.1,0-4.2.5-6,1.5-1.7,1-3.2,2.4-4.1,4.1-1,1.9-1.5,4-1.5,6.1,0,2.1.5,4.3,1.4,6.2.9,1.7,2.3,3.2,4.1,4.1,1.9,1,3.9,1.5,6,1.4,2.1,0,4.1-.4,5.9-1.3l-.4-3.9c-.9.4-1.8.7-2.7,1-.9.2-1.8.3-2.8.3-2,.1-3.9-.7-5.2-2.1-1.3-1.6-1.9-3.6-1.8-5.6-.1-2,.6-4,1.8-5.6,1.4-1.5,3.3-2.2,5.3-2.1M129.3,21.2c-1.3,0-2.6-.5-3.5-1.4-.9-1-1.4-2.3-1.3-3.6,0-1.3.4-2.7,1.3-3.7.9-1,2.2-1.5,3.6-1.4,1.3,0,2.5.3,3.6.9l.3-3.2c-1.3-.7-2.8-1.1-4.3-1-1.6,0-3.3.3-4.7,1.1-1.2.7-2.3,1.7-2.9,3-.7,1.3-1,2.8-1,4.3,0,1.5.3,2.9,1,4.2.6,1.3,1.6,2.3,2.9,3,1.4.8,3,1.2,4.6,1.1.8,0,1.7,0,2.5-.3.7-.1,1.4-.4,2-.7l-.4-3.4c-1.1.7-2.4,1-3.7,1.1M190.7,21c-.3-.1-.5-.4-.5-.6-.1-.6-.2-1.2-.1-1.8V0h-4v20.2c0,1.1.3,2.2,1,3,.8.8,1.9,1.3,3.1,1.2h1.4l.4-3.3c-.4,0-.9,0-1.3-.1M183.1,21c-.2-.2-.4-.4-.4-.7,0-.6-.1-1.2-.1-1.8v-4.3c0-2.2-.5-3.9-1.5-4.9-1.2-1.1-2.7-1.7-4.3-1.5-2,0-4,.5-5.8,1.4l.4,3.2c.7-.4,1.5-.7,2.3-.9.7-.2,1.4-.3,2.1-.3.8,0,1.5.1,2.2.6.5.6.8,1.3.7,2-1.3,0-2.7.3-4,.6-1.3.3-2.5.9-3.6,1.8-1,.8-1.6,2.1-1.5,3.4,0,1.3.4,2.6,1.3,3.5.9.9,2.1,1.3,3.3,1.3,1,0,1.9-.2,2.8-.5.8-.3,1.5-.7,2.1-1.4.3.6.8,1.1,1.4,1.4.7.4,1.4.5,2.2.5h1.4l.4-3.3h-.5c-.3,0-.6,0-.9-.1M178.6,20.2c-.4.4-.8.7-1.4.9-.4.2-.9.3-1.4.3-.6,0-1.2-.1-1.6-.5-.4-.4-.6-.9-.5-1.5,0-.9.6-1.7,1.5-2.1,1.1-.5,2.2-.8,3.4-.8v3.7ZM118.4,21c-.2-.2-.4-.4-.4-.7,0-.6-.1-1.2-.1-1.8v-4.3c0-2.2-.5-3.9-1.5-4.9-1.2-1.1-2.7-1.7-4.3-1.5-2,0-4,.5-5.8,1.4l.4,3.2c.7-.4,1.5-.7,2.3-.9.7-.2,1.4-.3,2.1-.3.8,0,1.5.1,2.2.6.5.6.8,1.3.7,2-1.3,0-2.7.3-4,.6-1.3.3-2.5.9-3.6,1.8-1,.8-1.6,2.1-1.5,3.4,0,1.3.4,2.6,1.3,3.5.9.9,2.1,1.3,3.3,1.3,1,0,1.9-.2,2.8-.5.8-.3,1.5-.7,2.1-1.4.3.6.8,1.1,1.4,1.4.7.4,1.4.5,2.2.5h1.4l.4-3.3h-.5c-.3,0-.6,0-.9-.1M114,20.2c-.4.4-.8.7-1.3.9-.4.2-.9.3-1.4.3-.6,0-1.2-.1-1.6-.5-.4-.4-.6-.9-.5-1.5,0-.9.6-1.7,1.5-2.1,1.1-.5,2.2-.8,3.4-.8v3.7ZM61.1,13.9c.3-.1.6-.4.7-.6.2-.3.2-.6.2-.9,0-.2,0-.4-.1-.6,0-.2-.2-.4-.3-.5-.1-.2-.3-.3-.5-.4-.2-.1-.4-.2-.6-.1h-3.9v6.7h3.3c.3,0,.6,0,.9-.1.3,0,.5-.2.8-.3.5-.3.7-.8.7-1.3,0-.8-.5-1.5-1.2-1.7M58.5,12.2h1.3c.1,0,.2,0,.3.1,0,.1.1.2.1.4,0,.2,0,.3-.2.4-.1,0-.2.1-.3.1h-1.2v-1ZM60.3,15.6c-.1,0-.2.1-.4.1h-1.4v-1.1h1.5c.1,0,.3,0,.3.2,0,.1.1.3.1.4,0,.1,0,.3-.2.4M51,11.6c-.3-.3-.7-.6-1.1-.7-.5-.2-1-.3-1.5-.3h-2.6v6.7h2.6c.5,0,.9,0,1.4-.2.4-.1.8-.4,1.1-.7.3-.3.5-.7.7-1.1.2-.4.2-.9.2-1.4,0-.4,0-.9-.2-1.3-.1-.4-.4-.8-.6-1.1M49.9,14.7c0,.2-.2.4-.3.6-.1.2-.3.3-.5.4-.2,0-.4.1-.6.1h-.7v-3.5h.7c.2,0,.4,0,.6.1.2,0,.3.2.5.4.1.2.2.3.3.5,0,.2.1.5,0,.7,0,.2,0,.5,0,.7M66.3,13.5l-1.2-2.9h-2l2.3,4.4v2.2h1.8v-2.2l2.3-4.5h-2l-1.2,2.9ZM102,20.4c-.1-.6-.2-1.2-.1-1.8V0h-4v20.2c0,1.1.3,2.2,1,3,.8.8,1.9,1.3,3.1,1.2h1.4l.4-3.3c-.4,0-.9,0-1.3-.1-.3-.1-.5-.4-.5-.6M88.2,1.6h-8v22.5h4.1v-7.8h4c2.1.1,4.2-.5,5.9-1.8,1.4-1.2,2-3.1,2-5.6,0-4.8-2.7-7.3-8-7.3M90.9,11.9c-.9.7-2,1.1-3.2,1h-3.5v-7.8h3.4c1.2,0,2.3.2,3.2,1,.8.8,1.2,1.9,1.1,2.9,0,1.1-.3,2.2-1,3"/>
  </g>
</svg>