<?xml version="1.0" encoding="UTF-8"?>
<svg id="Cut" xmlns="http://www.w3.org/2000/svg" viewBox="0 0 207.29 59.01">
  <defs>
    <style>
      .cls-1 {
        fill: #1a0081;
      }

      .cls-2 {
        fill: none;
        stroke: #1a0081;
        stroke-miterlimit: 10;
        stroke-width: 1.42px;
      }
    </style>
  </defs>
  <path class="cls-1" d="M69.06,10.2h22.37c1.19,0,3.56,0,4.33.72,1.13,1.03,1.39,4.79,1.39,6.24,0,1.29-.52,2.37-1.96,2.37-3.56,0-1.39-4.69-10.05-4.69-3.92,0-4.28.62-4.28,3.4v7.73h5.36c4.07,0,3.3-2.11,5.46-2.11,1.44,0,2.17.88,2.17,4.64s-.72,4.74-2.17,4.74c-2.22,0-1.39-2.11-5.46-2.11h-5.36v10.52c0,2.78,2.73,1.55,2.73,4.23,0,1.29-.67,2.06-3.3,2.06h-11.24c-2.63,0-3.3-.77-3.3-2.06,0-2.68,2.73-1.44,2.73-4.23v-25.16c0-2.78-2.73-1.55-2.73-4.23,0-1.29.67-2.06,3.3-2.06ZM133.82,34.38c0,9.74-9.64,14.38-18.2,14.38s-17.01-4.23-17.01-9.18c0-1.86,1.39-3.51,3.3-3.51,4.69,0,3.71,7.63,12.94,7.63,4.33,0,6.6-2.47,6.6-4.74,0-7.01-21.44-2.06-21.44-16.39,0-7.63,6.8-13.2,16.7-13.2,5.36,0,8.09.93,11.96,2.58,2.73,1.19,2.78,2.22,2.78,6.8,0,1.7-.62,3.09-2.58,3.09-3.87,0-2.06-8.25-10.46-8.25-4.07,0-6.03,1.86-6.03,4.07,0,7.63,21.44,3.2,21.44,16.7ZM137.11,41.65v-25.16c0-2.78-2.73-1.55-2.73-4.23,0-1.29.67-2.06,3.3-2.06h25.16c2.89,0,4.18.72,4.18,3.09v2.37c0,2.17-1.29,3.09-2.47,3.09-4.02,0-.57-3.92-10.36-3.92-3.97,0-4.69.36-4.69,3.92v6.19h6.34c4.07,0,3.3-2.11,5.46-2.11,1.44,0,2.17.88,2.17,4.64s-.72,4.74-2.17,4.74c-2.22,0-1.39-2.11-5.46-2.11h-6.34v7.78c0,4.9.98,5.41,5.72,5.41,9.48,0,6.86-4.79,10.57-4.79,1.65,0,2.63,1.08,2.63,2.73,0,.93-.52,4.59-1.13,5.67-.52.88-1.6,1.03-3.81,1.03h-25.77c-2.63,0-3.3-.77-3.3-2.06,0-2.68,2.73-1.44,2.73-4.23ZM169.6,29.17c0-11.65,10.93-19.79,21.96-19.79,4.23,0,9.18,1.24,12.68,3.66,1.86,1.29,2.11,2.01,2.11,7.22,0,1.6-1.13,2.47-2.73,2.47-3.97,0-2.58-8.71-11.24-8.71-6.5,0-9.9,6.08-9.9,14.49,0,10.88,4.95,14.69,10.83,14.69,6.75,0,8.92-6.19,11.75-6.19,1.29,0,2.22,1.08,2.22,2.32,0,4.79-9.18,9.43-14.95,9.43-13.51,0-22.73-7.78-22.73-19.59Z"/>
  <circle class="cls-2" cx="29.5" cy="29.5" r="28.79"/>
  <path class="cls-1" d="M48.78,21.73c-.63-1.59-2.73-4.2-5.67-4-2.94.19-4.55,2.39-4.55,2.39-.96-1.19-1.5-1.45-2.16-1.81s-1.6-.55-2.5-.53-2.11.45-2.11.45c0,0-.5-.97-1.17-2.1-.67-1.12-2.17-2.76-2.17-2.76,0,0-3.09-3.59-3.49-3.81-.4-.23-.45-.17-.59-.18s-.48.19-.48.19l-.83,1s-.36.24-.47,1.04c-.12.8.45,1.26.45,1.26,0,0,1.29,1.17,1.54,2,.24.82.71,1.72-1.01,5.59-2.13,4.82-6.14,8.66-11.89,11.56-.55.28-1.7.69-1.92.96-.21.27-.4.42-.36.93.04.51,0,.71.45,1.37.45.65.89.95,2.05,1.56s2.05.99,3.9,1.35,3.68.23,3.68.23c-.04.48-.16,1.96.27,3.37.43,1.41.92,2.78,1.92,3.93,1,1.15,1.93,2.09,3.35,2.76,1.42.67,3.02,1.26,4.9,1.14,1.87-.12,2.39-.17,4.03-.87,1.64-.69,3.33-2.13,4.45-3.84,1.12-1.71,1.54-3.61,1.61-5.07.07-1.46-.17-2.61-.17-2.61,0,0,2.3.91,4.76-.55,2.46-1.45,3.86-4.02,4.6-7.01.83-3.38.4-5.89-.41-7.95h0ZM32.25,24.18c-.17,2.84-1.21,4.91-1.21,4.91,0,0-.2-.1-.95-.12-.75-.02-1.06.04-1.06.04-.43-1.72-.22-4.46.47-6.42s2.11-2.87,2.11-2.87c0,0,.81,1.63.64,4.47h0ZM31.43,30.11s1.81.37,3.49,1.48c2.29,1.52,3.49,4.38,3.49,4.38,0,0-1.87,1.68-4.71.1-2.84-1.58-3.47-3.81-3.47-3.81.5-.72,1.21-2.15,1.21-2.15ZM29.77,31.48s-.38-.58-.52-1.54c0,0-.13-.04.68,0,.81.04.68.11.68.11,0,0-.38.96-.83,1.43ZM28.99,32.57s-1.42,1.99-3.74,3.36c-2.32,1.37-4.16,1.59-4.71,1.6,0,0,.49-2.85,2.56-4.83,1.45-1.39,3.27-2.25,4.91-2.59,0,0,.13.6.44,1.38.31.77.54,1.09.54,1.09h0ZM19.53,37.65c-1.65.28-3.85-.23-4.35-.33-.5-.11-3.19-1-3.2-1.31,0-.15.19-.44.19-.44,0,0,.48-.77.54-1.18.07-.41-.07-.5-.19-.71-.12-.21-.74-.86-.74-.86,0,0,2.99-1.24,5.87-3.53,2.88-2.3,4.63-5.06,5.35-6.17.72-1.11,1.75-3.3,2.11-4.47.36-1.17.51-2.06.49-2.88-.02-.82-.21-1.18-.51-1.61-.29-.43-1.57-1.86-1.57-1.86,0,0-.34-.44-.11-.89s.71-1.14.91-1.24c.2-.1.31.04.31.04,0,0,2.17,2.45,3.78,4.31,1.61,1.86,2.67,4.03,2.67,4.03-1.61,1-2.45,2.46-3.14,5.17-.75,2.92-.09,5.47-.09,5.47,0,0-1.98-.03-4.89,2.44-2.91,2.47-3.42,6.03-3.42,6.03ZM37.19,45.08c-3.03,4.27-9.28,4.89-13.45,1.49-4.16-3.4-3.39-8.28-3.39-8.28,0,0,4.96-.09,9.05-4.94,1.56,2.93,3.75,4.14,5.55,4.34,1.8.2,3.87-.81,3.87-.81,0,0,1.14,4.33-1.62,8.21h0ZM46.36,33.53c-1.56,2.23-4.49,3.66-6.71,2.69,0,0-.73-2.34-2.65-4.18-1.92-1.84-3.74-2.57-5.13-2.81,0,0,.96-2.29,1.07-4.86.1-2.57-.31-4.16-.71-5.08,0,0,.8-.55,2.09-.5,1.3.05,2.72.82,4.24,2.22,0,0,2.15-2.37,4.53-2.2s4.58,2.21,5.13,5.98c.48,3.28-.29,6.5-1.85,8.74Z"/>
</svg>