<?xml version="1.0" encoding="UTF-8"?>
<svg id="Cut" xmlns="http://www.w3.org/2000/svg" viewBox="0 0 266.4 268.26">
  <defs>
    <style>
      .cls-1 {
        fill: #1a0081;
      }

      .cls-2 {
        fill: none;
        stroke: #1a0081;
        stroke-miterlimit: 10;
        stroke-width: 2.83px;
      }
    </style>
  </defs>
  <g>
    <path class="cls-1" d="M74.01,241.05c-.53.41-1.06.52-1.68.14-2.65-1.65-5.32-3.28-7.97-4.92-.32-.2-.61-.44-.56-.86.06-.51.45-.62.89-.64.41-.02.66-.29.86-.61,1.38-2.24,2.88-4.42,4.1-6.76.14-.17.41-.34.17-.56-.14-.13-.36.03-.45.23-2.63,1.69-5.23,3.43-8.01,4.87-1.56.81-2.22.65-3.53-.46-.72-.61-.83-1.36-.74-2.2.33-2.88,1.09-5.66,2.16-8.35.24-.61.71-1.25-.39-1.59-.35-.11-.4-.58-.38-.96.04-.61-.21-1.11-.59-1.55-1.98-2.28-1.93-1.78-3.86.17-.26.26-.26.51.02.72.76.58,1.3,1.46,2.38,1.6.97.13,1.1.74.59,1.49-.27.4-.6.79-.98,1.08-.64.49-1.24.51-1.42-.46-.21-1.12-1.18-1.61-1.86-2.33-.3-.32-.57-.21-.82.08-.32.37-.68.71-.96,1.11-.43.63-1.47,1.13-.99,2.03.6,1.12,1.54,1.99,2.94,2.09.32.02.65-.04.97-.03.58.02.96.37.93.92-.06.95-.97,1.22-1.59,1.71-.49.39-.91.12-1.29-.23-2.19-2.05-4.39-4.11-6.58-6.17-.38-.36-.82-.73-.59-1.35.2-.56.69-.46,1.14-.44.36.01.6-.23.82-.47,1.81-1.93,3.61-3.85,5.41-5.79.28-.3.54-.61.41-1.08-.12-.4,0-.75.36-.95.42-.23.8,0,1.11.28.92.8,1.86,1.58,2.72,2.44,2.39,2.39,4.86,4.67,7.56,6.7.41.31.95.6.81,1.24-.13.64-.69.56-1.18.61-.53.05-.74.49-.9.9-.86,2.28-1.3,4.67-1.84,7.3,2.42-1.24,4.57-2.41,6.32-4.21.36-.37.37-.79.2-1.24-.16-.43-.31-.9.17-1.2.46-.28.88,0,1.22.27,1.33,1.08,2.84,1.89,4.26,2.82,3.09,2.03,6.26,3.92,9.62,5.47.86.4,1.29.98,1.44,1.92.37,2.23.84,4.44,1.29,6.73,1.22-1.05,2.12-3.66,1.77-4.98-.08-.32-.04-.57.17-.78.36-.36.75-.18,1.13-.03,2.12.83,4.23,1.66,6.35,2.48,1.36.53,2.71,1.08,4.1,1.53,1.19.38,2.17.81,1.6,2.58,2.41-1.29,4.65-1.22,6.92-.44.7.24,1.31.64,1.95.99,1.1.62,1.4,1.5,1.06,2.67-.17.58-.21,1.29-1.05,1.25-.75-.03-.86-.65-.94-1.22-.19-1.42-.96-2.27-2.38-2.56-.79-.16-1.52-.08-1.9.67-.38.74.01,1.37.63,1.78.91.61,1.87,1.15,2.8,1.71,1.87,1.12,2.54,2.29,2.26,3.92-.32,1.87-1.59,3.11-3.56,3.54-2.58.57-4.92-.04-7.06-1.48-.82-.55-1.48-1.29-1.7-2.3-.16-.74,0-1.42.79-1.7.78-.28,1.21.23,1.53.85.18.36.32.75.51,1.11.68,1.3,1.82,1.8,3.22,1.79.69,0,1.29-.26,1.51-1,.21-.71-.2-1.19-.73-1.53-.93-.58-1.9-1.1-2.84-1.65-2.08-1.22-2.54-2.27-2.01-4.64.04-.16.12-.45.11-.45-1.11-.4-.92-1.75-1.73-2.36-.52-.39-.94-.47-1.21.27-.94,2.51-1.89,5.02-2.84,7.52-.17.45-.17.86.13,1.26.23.32.24.69-.02,1.02-.28.35-.63.28-1,.15-1.33-.5-2.66-.99-3.99-1.49-.41-.15-.74-.39-.72-.87.02-.43.35-.63.73-.71.51-.11.72-.5.88-.93.86-2.37,1.72-4.74,2.55-7.11.14-.4.44-.88-.05-1.22-.47-.33-1-.27-1.48.05-.54.36-1.06.77-1.79.41-.5-.25-.51.26-.62.5-1.02,2.12-1.99,4.27-3.04,6.38-.31.63-.42,1.58-1.53,1.43-1.23-.17-2-.87-2.21-2.06-.5-2.88-1.01-5.76-1.53-8.76-.68.43-.79,1.09-1.06,1.63-.46.91-.89,1.82-1.36,2.73-.36.7-.71,1.35-.09,2.13.32.4.17.87-.44.99-.57.11-3.13-1.26-3.34-1.79-.07-.18,0-.4,0-.6,1.27-.04,1.88-.83,2.37-1.91.82-1.81,1.74-3.57,2.63-5.35.2-.4.4-.8.39-1.26,0-.23.04-.52-.22-.64-.24-.11-.33.16-.49.27-.91.64-1.54.46-1.76-.59-.3-1.44-1.46-1.96-2.58-2.51-.49-.24-.88.1-1.1.52-.34.66-1.03,1.13-1.04,1.96,0,.06.1.13.16.17.92.46,1.63,1.37,2.82,1.27.94-.08,1,.5.74,1.18-.14.37-.36.73-.6,1.05-.67.91-1.07.88-1.66-.11-.58-.97-1.57-1.53-2.54-1.72-.66-.13-.86,1.03-1.29,1.59-.25.32-.41.7-.59,1.06-.2.4-.15.78.11,1.14.71.98,2.56,1.68,3.7,1.34.57-.17,1.1-.36,1.52.25.42.62.01,1.07-.32,1.53-.14.2-.29.39-.44.58Z"/>
    <path class="cls-1" d="M197.46,226.91c1.56,2.4,3.12,4.79,4.68,7.18.25.39.56.69,1.08.68.35,0,.64.15.74.51.1.36-.07.63-.36.83-1.29.84-2.56,1.73-3.89,2.5-.74.43-1.31-.02-1.1-.89.16-.69-.05-1.17-.39-1.69-1.31-1.99-2.61-3.98-4.02-6.14-.44,1.27-1.13,1.28-1.97.82-.6-.32-1.23-.32-1.7.15-.54.53.07.98.29,1.4,1.12,2.17,2.28,4.31,3.42,6.46.24.45.5.83,1.07.86.39.03.72.22.8.63.09.43-.23.68-.55.86-1.28.7-2.57,1.39-3.87,2.06-.28.15-.61.27-.91-.02-.31-.29-.37-.64-.17-.99.26-.45.15-.83-.09-1.25-1.25-2.23-2.47-4.48-3.7-6.72-.19-.34-.34-.8-.86-.73-.48.07-.92.45-.91.87.03.96-.71,1.58-.85,2.47-.13.84-.78.97-1.49.61-.35-.18-.64-.5-.96-.74-1.8-1.35-4.34-.36-4.64,1.88-.35,2.67.73,4.88,2.71,6.58,1.37,1.17,3.61.63,4.69-.97.36-.54.61-1.15.92-1.71.23-.4.5-.79,1.05-.6.51.18.63.63.58,1.09-.05.44-.14.89-.32,1.29-1.15,2.56-4.11,4.04-7.68,3.86-2.67-.13-4.66-1.67-5.6-4.33-1.3-3.65,1.3-8.12,5.31-9.18,1.62-.43,3.22-.38,4.77-1.71,2.14-1.83,5.03-2.75,7.5-4.23,2.88-1.72,5.73-3.52,8.41-5.54.32-.24.66-.48,1-.69.28-.17.59-.33.91-.1.34.24.45.57.29.96-.18.43-.13.8.24,1.1,2.05,1.68,4.38,2.86,7.02,4.15-.69-2.64-1.17-5.01-2.43-7.13-.3-.51-.7-.74-1.31-.66-.42.06-.84,0-1.05-.44-.22-.47.07-.8.39-1.05,3.13-2.35,5.7-5.31,8.66-7.85.75-.65,1.46-.87,2.19.03.33.41.77.79.53,1.39-.24.61-.78.58-1.33.58-1.42,0-2.23,1.01-3.04,1.98-.3.36-.09.67.13.99,1.25,1.84,2.31,1.86,3.58.08.09-.13.18-.27.24-.42.22-.5.04-1.35.98-1.24.54.06,1.79,1.55,1.77,2.05-.01.38-.22.6-.58.68-.24.05-.51.03-.72.13-.86.41-1.68,1.02-2,1.86-.21.54.65,1.04,1.08,1.49.57.6,1.02,1.79,2.08,1.26,1.2-.6,2.25-1.55,2.34-3.05.04-.66-.15-1.37.7-1.6.69-.19,1.03.36,1.33.84.4.64.97,1.29.17,2.05-2.3,2.17-4.61,4.34-6.91,6.51-.29.27-.62.42-1,.25-.38-.17-.52-.52-.41-.91.12-.44.03-.79-.28-1.11-1.83-1.9-3.66-3.8-5.48-5.7-.14-.15-.28-.3-.66-.18.4,1.12.8,2.23,1.19,3.35.7,2,1.21,4.04,1.65,6.11.27,1.28-.03,2.26-1.12,3.09-1.01.77-1.97.63-2.96.16-2.95-1.38-5.69-3.11-8.36-4.97-.24-.17-.44-.36-.82-.17Z"/>
    <path class="cls-1" d="M154.28,254.21c.72-.48.46-1.01.37-1.44-.49-2.41-1.01-4.82-1.53-7.22-.12-.56-.28-1.02-.85-1.38-.8-.49-.67-1.23.24-1.46,1.45-.37,2.93-.68,4.41-.92.81-.13,1.21.54.72,1.24-.38.54-.36,1.03-.24,1.6.46,2.23.88,4.46,1.36,6.69.12.55-.01,1.37.82,1.45.9.09,1.8-.07,2.38-.91.18-.26.33-.57.43-.87.19-.59.56-.89,1.18-.8.65.1.67.6.68,1.11,0,.23.02.46.04.74.61-.31.37-.72.26-1.09-.72-2.54-1.46-5.07-2.18-7.61-.14-.49-.36-.89-.92-1.02-.36-.08-.54-.38-.54-.73,0-.37.25-.58.59-.68,3.03-.93,6.05-1.87,9.08-2.77.6-.18,1.03.14,1.21.73.19.6.65,1.22.12,1.83-.46.52-1,.35-1.55.05-1.23-.67-2.38-.12-3.48.37-.64.28-.39.88-.24,1.39.61,2.07.95,2.21,2.88,1.2.21-.11.43-.25.58-.43.39-.45.69-1.14,1.43-.5.64.55.98,2.4.55,2.82-.22.22-.5.25-.79.18-.24-.06-.47-.16-.7-.18-.8-.07-1.56.19-2.22.54-1.1.58.07,1.31.03,1.99-.02.34.18.7.3,1.05.29.87.8,1.23,1.77.91,1.26-.42,2.47-.82,2.93-2.28.13-.42.54-.59,1-.52.42.06.61.37.74.72.57,1.58.17,2.41-1.47,2.9-2.64.79-5.28,1.64-7.95,2.3-3.36.84-6.74,1.72-10.17,2.18-1.67.22-3.26.82-4.96.88-1.78.07-3.54.41-5.32.61-.44.05-.95.13-1.22-.33-.28-.46,0-.84.34-1.17.38-.35.3-.82.24-1.26-.36-2.68-.58-5.38-1.14-8.04-.08-.39-.31-.51-.56-.72-.66-.55-.56-1.27.25-1.41,1.52-.26,3.06-.39,4.59-.56.33-.04.66,0,.82.38.17.39.09.75-.23.99-.58.43-.45.98-.37,1.55.29,2.22.56,4.43.86,6.65.08.61-.06,1.46.78,1.6.81.13,1.63-.1,2.21-.76.24-.27.37-.63.57-.93.28-.42.62-.77,1.2-.61.64.18.76.65.67,1.23-.03.19,0,.38,0,.73Z"/>
    <path class="cls-1" d="M129.12,247.64c1.91-2.52,4.34-3.82,7.47-3.76,3.97.07,7.14,3.08,7.17,6.82.03,3.73-3.15,6.74-7.11,6.87-1.99.06-3.79-.35-5.37-1.57-2.14-1.65-2.89-3.84-2.49-6.47.08-.55.33-1.15-.69-1.03-.64.07-.82-.56-1.05-1.03-.82-1.77-1.49-2.23-3.11-2.16-1.61.06-2.37,1.15-2.84,2.46-.56,1.55-.76,3.16-.29,4.79.69,2.42,3.04,3.35,5.2,2.06.42-.25.78-.59,1.19-.85.38-.24.8-.49,1.22-.1.43.41.34.91.08,1.34-.73,1.21-1.95,1.73-3.23,1.99-2.87.59-5.43-.2-7.49-2.25-3.42-3.42-1.71-9.21,3.15-10.84,2.37-.8,4.62-.51,6.8.71,1.19.67,1.62,1.64,1.41,3.02ZM139.22,250.94c-.12-1.36-.04-2.68-.68-3.87-.52-.98-1.36-1.5-2.47-1.47-1.06.02-1.91.54-2.28,1.54-.88,2.41-.83,4.85.15,7.23.42,1.03,1.25,1.54,2.41,1.48,1.15-.05,1.85-.64,2.32-1.65.5-1.07.47-2.2.54-3.25Z"/>
  </g>
  <g>
    <path class="cls-1" d="M34.98,66.61c2.35.01,4.47,2.13,4.57,4.95.04,1.24.44,1.38,1.53,1.16,1.65-.33,3.32-.08,4.96.24.9.17,1.78.24,2.62-.18.41-.21.77-.24,1.11.1.3.3.27.67.16,1.03-.09.31-.21.62-.37.9-1.04,1.84-2.09,3.67-3.15,5.5-.26.46-.54,1-1.16.93-.61-.06-.84-.55-.9-1.14-.06-.6-.55-.76-1.03-.89-1.56-.4-3.15-.26-4.73-.25-.71,0-.8.57-1.01,1.05-.27.62.23.77.61.98.88.5,1.79.96,2.65,1.5.65.4,1.24.53,1.93.11.46-.28.94-.22,1.35.15.44.4.4.92.16,1.35-1.15,2.05-2.34,4.09-3.53,6.12-.22.38-.6.55-1.05.44-.49-.12-.81-.45-.81-.94,0-.85-.45-1.3-1.15-1.69-3.34-1.84-6.67-3.72-9.99-5.6-.7-.4-1.35-.7-2.15-.19-.5.32-1.03.14-1.43-.28-.37-.39-.28-.84-.04-1.24,2.18-3.71,3.99-7.63,6.37-11.22,1-1.5,2.27-2.79,4.46-2.86ZM36.02,76.68c.1-1.71-1.15-3.38-2.77-3.75-1.31-.31-2.71.48-3.2,1.81-.39,1.04-.06,1.59,1.41,2.41.71.39,1.41.79,2.11,1.2,1.71,1,1.92.9,2.34-1.12.04-.2.08-.4.11-.54Z"/>
    <path class="cls-1" d="M251.34,105.2c-.01,4.95-3.28,8.45-8.52,9.13-5.14.67-8.8-1.84-10.39-7.22-.89-3-1.67-6.03-2.49-9.04-.1-.35-.15-.72-.21-1.08-.09-.52-.01-.98.49-1.27.48-.27.97-.24,1.34.16.62.7,1.31.57,2.1.35,3.53-.94,7.07-1.83,10.61-2.72.88-.22,1.74-.4,1.98-1.5.12-.55.61-.73,1.15-.69.65.05.86.56,1.01,1.08.68,2.47,1.33,4.94,2.02,7.41.49,1.77.92,3.54.92,5.39ZM248.13,101.8c.01-2.13-.54-2.58-2.36-2.14-1.07.26-2.13.53-3.19.8-2.43.64-4.87,1.26-7.29,1.93-1.24.35-1.49.89-1.06,2.1.48,1.35,1.46,2.22,2.75,2.76,3,1.24,5.82.74,8.44-1.02,1.63-1.1,2.64-2.62,2.72-4.43Z"/>
    <path class="cls-1" d="M155.38,13.06c3.01.08,5.73.99,8.1,2.87,1.02.81,1.06,3.76.07,4.65-.6.54-1.54.34-1.92-.48-.24-.51-.35-1.08-.52-1.62-.63-1.98-2.46-3.12-4.52-2.84-.88.12-1.57.48-1.85,1.36-.27.87.22,1.48.85,1.99.89.73,1.92,1.21,2.92,1.75.82.44,1.67.84,2.46,1.34,3.66,2.29,3.91,6.7.43,9.31-3.15,2.36-6.66,2.26-10.2,1.01-1.69-.6-3.24-1.5-4.52-2.81-.64-.66-1.1-1.43-1.14-2.36-.04-.87.27-1.66,1.16-1.94.84-.27,1.63-.04,2.13.75.37.58.65,1.22.98,1.82,1.09,1.93,3.59,2.95,5.65,2.31.79-.25,1.38-.73,1.58-1.54.21-.86-.37-1.39-.98-1.81-.6-.41-1.26-.73-1.91-1.06-.94-.48-1.9-.92-2.83-1.42-2.23-1.18-3.86-2.79-3.46-5.58.4-2.73,2.09-4.4,4.62-5.29.93-.33,1.89-.45,2.89-.4Z"/>
    <path class="cls-1" d="M57.34,62.88c-2.17-.03-3.68-.96-5.02-2.18-2.16-1.97-4.04-4.22-5.94-6.44-.57-.67-1.09-1.33-2.14-.94-.37.14-.71-.12-.93-.44-.27-.39-.21-.8.08-1.13,1.66-1.9,3.39-3.73,5.37-5.3.37-.3.82-.36,1.24-.06.43.31.46.73.3,1.2-.2.58-.1,1.07.3,1.58,1.82,2.29,3.71,4.52,5.76,6.6.66.67,1.36,1.28,2.21,1.7,1.62.8,3.1.53,4.31-.77,1.2-1.29,1.36-2.66.46-4.25-.67-1.17-1.58-2.17-2.55-3.09-1.68-1.59-3.39-3.15-5.07-4.74-.53-.51-1.06-.62-1.76-.39-.58.19-1.24.22-1.59-.48-.33-.65.1-1.09.51-1.49.88-.84,1.8-1.64,2.68-2.47.43-.4.91-.62,1.43-.32.5.29.67.81.42,1.38-.3.69.02,1.17.49,1.61,1.59,1.51,3.18,3.02,4.76,4.54,1.12,1.07,2.15,2.21,2.98,3.53,1.19,1.89,1.31,3.85.24,5.78-1.42,2.53-3.41,4.54-5.98,5.92-.87.46-1.81.74-2.55.65Z"/>
    <path class="cls-1" d="M191.55,28.19c-.49,4.89-.99,9.78-1.48,14.67-.07.68-.14,1.32.17,2.01.44,1.01-.27,1.79-1.3,1.4-2.21-.83-4.26-2-6.22-3.3-.79-.52-.6-1.46.3-1.61.87-.14.99-.67,1.15-1.32q.61-2.52-1.67-3.69c-.65-.33-1.28-.7-1.95-1-.57-.25-1.13-.96-1.74-.61-.83.48-1.55,1.18-2.07,2.02-.24.4-.02.78.21,1.13.3.45.34.91-.04,1.34-.42.48-.93.44-1.44.18-1.01-.52-2.01-1.05-3-1.61-.4-.22-.74-.52-.67-1.06.07-.57.44-.89.96-.94.97-.08,1.61-.67,2.25-1.3,3.17-3.09,6.45-6.06,9.84-8.9,2.11-1.76,3.59-1.75,5.77-.07.75.58.9,1.03.95,2.65ZM185.76,28.52c-1.82,1.35-3.32,2.56-4.83,4.01,1.27.65,2.39,1.2,3.5,1.78.34.18.64.26.7-.24.21-1.75.4-3.49.64-5.55Z"/>
    <path class="cls-1" d="M222.14,71.56c-.74.22-1.48.42-2.21.67-.54.19-.66.65-.63,1.19.03.53-.13.97-.7,1.13-.59.17-1.05-.05-1.35-.55-.61-1.01-1.24-2.01-1.78-3.05-.44-.86.18-1.79,1.01-1.45,1.82.74,3.45-.12,5.11-.45,3.78-.74,7.53-1.62,11.34-2.19,2.13-.32,4.48,1.54,4.61,3.69.05.78-.42,1.39-.84,1.99-2.75,3.98-5.64,7.85-8.57,11.7-.49.64-.93,1.27-1.04,2.15-.12.93-1.14,1.24-1.71.52-1.47-1.84-2.68-3.87-3.7-5.99-.46-.96.16-1.6,1.19-1.32.57.15.9-.01,1.28-.39q2.02-2.06.48-4.49c-.52-.82-1.03-1.66-1.52-2.5-.22-.37-.44-.69-.96-.63ZM231.69,69.86c-1.3.19-2.25.31-3.2.48-.9.16-2.28.09-2.58.61-.4.7.75,1.52,1.11,2.35.14.33.3.66.5.96.17.25.35.4.64.03,1.1-1.42,2.23-2.8,3.54-4.43Z"/>
    <path class="cls-1" d="M19.56,97.26c.65-.09,1.24.11,1.83.23.56.11,1.01.35,1.06.99.05.61-.27,1.06-.79,1.25-1.95.68-2.45,2.32-2.84,4.07-.23,1.05.17,1.64,1.19,1.85.48.1.95.22,1.43.3.81.14,2,.86,2.35.26.64-1.09,1.12-2.48.67-3.84-.61-1.86-.23-2.34,1.75-2.04.28.04.56.09.84.16,2.01.5,2.23,1.24.86,2.74-.93,1.02-.88,2.41-1.21,3.65-.1.38.34.37.6.44,1.45.37,2.91.74,4.36,1.11.61.16,1-.16,1.38-.55.38-.39.84-.48,1.33-.2.46.26.58.72.49,1.16-.5,2.3-1.05,4.59-1.59,6.88-.11.46-.38.81-.93.81-.54,0-.97-.18-1.13-.73-.25-.87-.88-1.13-1.7-1.32-3.71-.86-7.41-1.79-11.11-2.68-.62-.15-1.28-.35-1.82.24-.44.47-.98.61-1.54.26-.55-.34-.46-.93-.35-1.44.53-2.38,1.08-4.75,1.64-7.12.39-1.66.8-3.32,1.18-4.98.26-1.13.89-1.71,2.06-1.5Z"/>
    <path class="cls-1" d="M92.07,20.53c-.05-1.9.1-2.09,1.66-2.54,4.21-1.21,8.42-2.44,12.63-3.63.64-.18,1.42-.62,1.94.05.73.95,1.58,1.93,1.45,3.25-.1,1.01-1.34,1.34-2.32.62-.7-.52-1.36-1-2.3-.91-.86.08-1.3.39-1.03,1.33,1.13,3.9,2.24,7.81,3.37,11.71.18.64.57,1.06,1.24,1.19.58.11.78.54.84,1.06.06.58-.29.95-.79,1.09-2.18.64-4.37,1.26-6.57,1.82-.48.12-1.07.19-1.41-.41-.31-.56-.14-1.04.29-1.42.56-.51.41-1.06.23-1.67-1.09-3.74-2.17-7.49-3.24-11.23-.37-1.31-1.15-1.54-2.21-.65-.53.44-.74,1.06-.95,1.67-.26.77-.7,1.3-1.6,1.17-.84-.12-1.08-.76-1.15-1.5-.04-.4-.07-.81-.08-1Z"/>
    <path class="cls-1" d="M215.18,45.85c-.61-.21-1.02.16-1.38.55-2.69,2.87-5.37,5.75-8.07,8.61-.68.73-.7,1.33,0,2.09,1.1,1.18,2.35,1.69,3.94,1.25.51-.14,1.01-.29,1.54-.06.96.42,1.18,1.45.39,2.15-.82.74-1.79,1.25-2.78,1.73-.65.31-1.13.03-1.54-.36-2.95-2.73-5.88-5.47-8.81-8.23-.38-.36-.76-.79-.51-1.39.27-.66.84-.7,1.43-.6.65.11,1.07-.24,1.47-.67,2.73-2.95,5.46-5.9,8.19-8.84.45-.48.73-.94.48-1.63-.21-.58.05-1.03.53-1.36.48-.32.89-.02,1.21.26,1.7,1.44,3.43,2.86,4.96,4.49.42.45.65.97.31,1.54-.3.51-.8.66-1.37.46Z"/>
    <path class="cls-1" d="M86.56,41.56c-.03.49-.31.79-.66,1-1.91,1.14-3.83,2.28-5.75,3.4-.48.28-1,.41-1.44-.07-.4-.43-.51-.94-.18-1.45.42-.65.21-1.22-.14-1.81-1.94-3.33-3.87-6.66-5.8-9.99-.42-.73-.84-1.38-1.84-1.31-.5.04-.79-.36-.94-.81-.17-.51.09-.9.49-1.14,2.02-1.2,4.05-2.38,6.1-3.53.38-.21.87-.26,1.24.13.39.42.57.91.22,1.43-.39.59-.29,1.11.05,1.69,1.96,3.36,3.89,6.74,5.82,10.12.42.73.86,1.34,1.85,1.32.61-.01.91.45.99,1Z"/>
  </g>
  <circle class="cls-2" cx="133.2" cy="135.06" r="131.78"/>
  <path class="cls-1" d="M221.42,99.51c-2.88-7.29-12.49-19.21-25.94-18.32-13.44.89-20.82,10.94-20.82,10.94-4.38-5.46-6.87-6.62-9.87-8.29s-7.34-2.5-11.42-2.41c-4.08.09-9.67,2.04-9.67,2.04,0,0-2.28-4.46-5.34-9.59-3.07-5.13-9.91-12.62-9.91-12.62,0,0-14.16-16.42-15.98-17.45-1.82-1.04-2.04-.8-2.71-.82-.67-.02-2.21.86-2.21.86l-3.8,4.56s-1.63,1.1-2.16,4.78c-.54,3.68,2.06,5.75,2.06,5.75,0,0,5.91,5.37,7.03,9.14,1.11,3.77,3.23,7.85-4.61,25.6-9.73,22.05-28.09,39.65-54.41,52.9-2.52,1.28-7.79,3.18-8.77,4.41-.98,1.23-1.85,1.93-1.66,4.27.18,2.33.01,3.27,2.06,6.25,2.04,2.98,4.08,4.33,9.39,7.12s9.36,4.54,17.85,6.18,16.84,1.04,16.84,1.04c-.17,2.18-.75,8.99,1.23,15.43,1.99,6.45,4.19,12.73,8.78,17.99,4.59,5.26,8.82,9.57,15.33,12.64,6.51,3.06,13.83,5.76,22.41,5.22,8.58-.54,10.92-.79,18.43-3.96,7.52-3.16,15.24-9.75,20.36-17.56,5.13-7.82,7.04-16.52,7.35-23.19.31-6.68-.78-11.95-.78-11.95,0,0,10.53,4.15,21.79-2.5,11.25-6.64,17.65-18.4,21.03-32.08,3.82-15.49,1.85-26.94-1.88-36.38ZM145.78,110.73c-.79,13-5.54,22.46-5.54,22.46,0,0-.9-.46-4.34-.57-3.45-.11-4.87.17-4.87.17-1.96-7.85-1.02-20.39,2.17-29.39,3.19-9,9.67-13.14,9.67-13.14,0,0,3.7,7.47,2.91,20.47ZM142.01,137.87s8.27,1.68,15.95,6.77c10.5,6.96,15.95,20.06,15.95,20.06,0,0-8.57,7.7-21.56.45-12.99-7.24-15.89-17.42-15.89-17.42,2.29-3.28,5.55-9.86,5.55-9.86ZM134.43,144.14s-1.76-2.65-2.39-7.03c0,0-.59-.18,3.11,0,3.69.18,3.1.5,3.1.5,0,0-1.73,4.38-3.82,6.53ZM130.86,149.13s-6.52,9.1-17.13,15.36c-10.61,6.27-19.05,7.29-21.54,7.32,0,0,2.23-13.04,11.71-22.11,6.64-6.36,14.97-10.28,22.47-11.86,0,0,.58,2.76,2,6.3,1.42,3.53,2.49,4.99,2.49,4.99ZM87.55,172.37c-7.57,1.28-17.63-1.03-19.91-1.52-2.28-.49-14.62-4.59-14.64-6-.01-.69.89-2,.89-2,0,0,2.18-3.51,2.48-5.4.31-1.89-.3-2.28-.88-3.25-.57-.98-3.39-3.95-3.39-3.95,0,0,13.69-5.66,26.88-16.16,13.2-10.51,21.18-23.18,24.48-28.26,3.31-5.07,7.99-15.11,9.66-20.46,1.66-5.35,2.33-9.45,2.22-13.2-.1-3.74-.98-5.42-2.33-7.38-1.35-1.97-7.2-8.5-7.2-8.5,0,0-1.56-2.03-.52-4.08s3.25-5.2,4.17-5.67c.92-.47,1.41.2,1.41.2,0,0,9.92,11.22,17.3,19.72,7.39,8.51,12.24,18.46,12.24,18.46-7.38,4.58-11.21,11.25-14.37,23.67-3.41,13.36-.42,25.05-.42,25.05,0,0-9.06-.15-22.4,11.15-13.33,11.3-15.67,27.58-15.67,27.58ZM168.38,206.4c-13.88,19.54-42.49,22.39-61.54,6.8-19.05-15.58-15.53-37.91-15.53-37.91,0,0,22.7-.43,41.42-22.6,7.16,13.4,17.17,18.93,25.39,19.84,8.22.92,17.69-3.71,17.69-3.71,0,0,5.2,19.8-7.43,37.58ZM210.36,153.51c-7.13,10.22-20.56,16.73-30.73,12.31,0,0-3.33-10.71-12.14-19.12-8.81-8.41-17.12-11.74-23.49-12.86,0,0,4.41-10.46,4.88-22.23.46-11.77-1.44-19.04-3.26-23.27,0,0,3.64-2.5,9.57-2.28,5.93.23,12.44,3.73,19.42,10.15,0,0,9.86-10.86,20.75-10.07s20.94,10.11,23.46,27.38c2.19,14.99-1.34,29.77-8.46,39.99Z"/>
</svg>