<?xml version="1.0" encoding="UTF-8"?>
<svg xmlns="http://www.w3.org/2000/svg" viewBox="0 0 702.04 115.19">
  <defs>
    <style>
      .cls-1 {
        fill: #1a0081;
      }

      .cls-2 {
        fill: none;
        stroke: #1a0081;
        stroke-miterlimit: 10;
        stroke-width: 1.42px;
      }
    </style>
  </defs>
  <g id="Cut">
    <circle class="cls-2" cx="55.87" cy="58.9" r="54.97"/>
    <path class="cls-1" d="M99.39,41.33c-1.42-3.59-6.17-9.49-12.81-9.04-6.64.43-10.28,5.4-10.28,5.4-2.17-2.69-3.39-3.28-4.88-4.09s-3.62-1.24-5.65-1.2-4.77,1.02-4.77,1.02c0,0-1.13-2.19-2.64-4.75-1.51-2.53-4.9-6.24-4.9-6.24,0,0-6.98-8.11-7.89-8.61-.9-.52-1.02-.38-1.33-.41s-1.08.43-1.08.43l-1.88,2.26s-.81.54-1.06,2.35c-.27,1.81,1.02,2.85,1.02,2.85,0,0,2.92,2.64,3.48,4.52.54,1.85,1.6,3.89-2.28,12.63-4.81,10.89-13.87,19.57-26.87,26.12-1.24.63-3.84,1.56-4.34,2.17-.47.61-.9.95-.81,2.1.09,1.15,0,1.6,1.02,3.1,1.02,1.47,2.01,2.15,4.63,3.53,2.62,1.38,4.63,2.24,8.81,3.05,4.18.81,8.32.52,8.32.52-.09,1.08-.36,4.43.61,7.62.97,3.19,2.08,6.28,4.34,8.88,2.26,2.6,4.36,4.72,7.57,6.24,3.21,1.51,6.82,2.85,11.07,2.58,4.23-.27,5.4-.38,9.11-1.97,3.71-1.56,7.53-4.81,10.06-8.68,2.53-3.86,3.48-8.16,3.64-11.46s-.38-5.9-.38-5.9c0,0,5.2,2.06,10.76-1.24,5.56-3.28,8.72-9.08,10.39-15.84,1.88-7.64.9-13.31-.93-17.97h0l-.02.02ZM62.03,46.86c-.38,6.42-2.73,11.1-2.73,11.1,0,0-.45-.23-2.15-.27s-2.4.09-2.4.09c-.97-3.89-.5-10.08,1.06-14.51s4.77-6.49,4.77-6.49c0,0,1.83,3.68,1.45,10.1h0v-.02ZM60.18,60.27s4.09.84,7.89,3.34c5.17,3.43,7.89,9.9,7.89,9.9,0,0-4.23,3.8-10.64.23-6.42-3.57-7.84-8.61-7.84-8.61,1.13-1.63,2.73-4.86,2.73-4.86h-.02ZM56.43,63.36s-.86-1.31-1.18-3.48c0,0-.29-.09,1.54,0s1.54.25,1.54.25c0,0-.86,2.17-1.88,3.23h-.02ZM54.67,65.82s-3.21,4.5-8.45,7.59-9.4,3.59-10.64,3.62c0,0,1.11-6.44,5.79-10.91,3.28-3.14,7.39-5.08,11.1-5.85,0,0,.29,1.36.99,3.12.7,1.74,1.22,2.46,1.22,2.46h0v-.02ZM33.29,77.3c-3.73.63-8.7-.52-9.83-.75-1.13-.25-7.21-2.26-7.23-2.96,0-.34.43-.99.43-.99,0,0,1.08-1.74,1.22-2.67.16-.93-.16-1.13-.43-1.6s-1.67-1.94-1.67-1.94c0,0,6.76-2.8,13.26-7.98,6.51-5.2,10.46-11.43,12.09-13.94s3.95-7.46,4.77-10.1,1.15-4.66,1.11-6.51c-.05-1.85-.47-2.67-1.15-3.64-.66-.97-3.55-4.2-3.55-4.2,0,0-.77-.99-.25-2.01s1.6-2.58,2.06-2.8c.45-.23.7.09.7.09,0,0,4.9,5.54,8.54,9.74s6.03,9.11,6.03,9.11c-3.64,2.26-5.54,5.56-7.1,11.68-1.69,6.6-.2,12.36-.2,12.36,0,0-4.47-.07-11.05,5.51-6.58,5.58-7.73,13.63-7.73,13.63l-.02-.02ZM73.2,94.09c-6.85,9.65-20.97,11.05-30.39,3.37-9.4-7.68-7.66-18.71-7.66-18.71,0,0,11.21-.2,20.45-11.16,3.53,6.62,8.47,9.36,12.54,9.81,4.07.45,8.75-1.83,8.75-1.83,0,0,2.58,9.78-3.66,18.55h0l-.02-.02ZM93.92,67.99c-3.53,5.04-10.15,8.27-15.16,6.08,0,0-1.65-5.29-5.99-9.45-4.34-4.16-8.45-5.81-11.59-6.35,0,0,2.17-5.17,2.42-10.98.23-5.81-.7-9.4-1.6-11.48,0,0,1.81-1.24,4.72-1.13,2.94.11,6.15,1.85,9.58,5.02,0,0,4.86-5.36,10.24-4.97,5.38.38,10.35,4.99,11.59,13.51,1.08,7.41-.66,14.69-4.18,19.75h-.02Z"/>
  </g>
  <g id="Layer_3" data-name="Layer 3">
    <g>
      <path class="cls-1" d="M148.23,34.49c.06-2.38.12-6.09-.17-8.35-.7-4.99-4.47-2.84-4.47-6.03,0-2.2,2.55-3.13,4.41-3.13,1.51,0,11.95.58,16.76.58,1.16,0,12.82-.58,13.63-.58,2.26,0,4.64,4.76,4.64,8.7,0,1.97-.93,4-3.13,4-4,0-1.91-5.97-13.05-5.97-3.54,0-5.05-.29-5.05,8.12,0,1.04.06,2.03,3.42,2.03,4.47,0,1.62-5.34,5.68-5.34,3.31,0,3.54,6.32,3.54,8.58,0,2.73-.29,9.74-4.23,9.74-3.71,0,.12-6.55-6.09-6.55-2.55,0-2.2.46-2.26,6.44-.23,8.58,5.63,3.83,5.63,8.24,0,1.33.52,3.89-13.57,3.89-9.28,0-10.79-1.33-10.79-3.83,0-3.25,3.13-1.74,4.35-4.81.58-1.62.75-5.74.75-7.66v-8.06Z"/>
      <path class="cls-1" d="M198.29,29.62c0-8.99-4.41-5.28-4.41-8.87,0-3.19,4.52-3.6,6.84-3.6,1.22,0,2.38.12,3.6.17,1.16.12,2.38.23,3.54.23,1.86,0,3.71-.12,5.63-.23,1.86-.06,3.77-.17,5.63-.17,6.55,0,14.15,2.9,14.15,10.61,0,3.48-1.68,6.84-4.93,8.41-.52.29-.93.46-.93,1.16,0,.87.75,1.1,1.45,1.39,4.06,1.51,5.86,4.18,6.67,10.44.7,5.39,4.47,2.15,4.47,5.68,0,2.2-2.67,4.52-9.22,4.52-9.28,0-10.44-5.34-12.24-12.99-.64-2.67-1.62-5.28-4.81-5.28-1.28,0-1.74.17-1.74,3.83,0,1.68.12,4,.41,5.63.46,2.67,3.42,1.86,3.42,4.64,0,2.09-1.45,3.65-10.85,3.65-2.78,0-11.02,0-11.02-4.23,0-3.02,4.35-.93,4.35-8.47v-16.53ZM211.74,32.17c-.12,1.51-.41,2.78,1.51,2.78,3.77,0,4.99-2.09,4.99-5.68,0-2.84-.7-5.74-4.06-5.74-2.15,0-2.09,1.33-2.2,3.13l-.23,5.51Z"/>
      <path class="cls-1" d="M287.32,27.59c0-6.21-4.99-3.83-4.99-7.19,0-3.6,6.73-3.48,9.11-3.48,2.2,0,8.58,0,8.58,3.36s-4.35,1.28-4.35,6.55v15.66c0,2.61.06,16.53-20.01,16.53-22.85,0-20.3-17.63-20.3-18.33v-13.4c.23-3.65-3.71-3.65-3.71-6.32,0-.81-.64-4.06,11.31-4.06,9.45,0,11.37,1.74,11.37,4,0,4.18-4.23.29-4.52,7.37v10.67c0,6.9,2.61,11.31,8.76,11.31,9.16,0,8.76-7.6,8.76-8.24v-14.44Z"/>
      <path class="cls-1" d="M316.9,35.01c0-7.37-.58-9.05-1.22-9.86-1.33-1.68-3.6-1.86-3.6-4.06,0-4.18,11.83-4.18,12.99-4.18,3.48,0,10.61.12,10.61,4.06,0,2.09-2.2,1.97-3.54,3.48-1.1,1.28-1.16,6.5-1.16,10.56v5.74c0,10.32.7,10.09,1.86,10.79,1.45.87,2.84,1.16,2.84,2.96s-.52,4.35-13.22,4.35c-2.44,0-9.74-.06-9.74-3.77,0-1.86,1.97-2.15,2.9-3.25.7-.81,1.28-2.96,1.28-11.08v-5.74Z"/>
      <path class="cls-1" d="M375.82,17.55c2.49,0,3.65-.23,4.52-.41.81-.23,1.28-.41,2.38-.41,2.26,0,6.96,4.47,6.96,10.73,0,2.9-1.51,4.81-4.47,4.81-5.05,0-4.99-6.84-7.95-6.84-2.26,0-2.03,3.13-2.03,3.6v17.81c0,6.9,5.34,3.6,5.34,7.66,0,1.8-1.1,4.35-11.95,4.35-2.96,0-13.8.12-13.8-4.35,0-3.07,3.6-1.86,4.76-4.06.58-1.22.81-4.7.87-6.15l.46-12.82c.23-6.09-.99-6.03-1.8-6.03-2.61,0-3.89,6.84-8.58,6.84-2.26,0-3.6-2.09-3.6-4.18,0-4.93,4.18-11.37,7.48-11.37.41,0,1.04.17,2.15.41,1.1.17,2.67.41,4.99.41h14.27Z"/>
      <path class="cls-1" d="M431.16,30.26c0-6.03,5.8-13.51,17.05-13.51,3.71,0,7.89,1.62,8.76,1.62.81,0,1.62-.81,2.84-.81,1.97,0,6.38,4.47,6.38,9.34,0,1.97-1.28,3.94-3.42,3.94-3.89,0-6.15-6.61-12.18-6.61-1.8,0-3.71.81-3.71,2.9,0,4.58,7.95,3.36,14.67,7.83,3.6,2.38,5.39,5.28,5.39,9.63,0,6.79-5.57,14.44-19.08,14.44-3.83,0-10.38-.99-13.69-2.78-2.78-1.57-4.12-7.71-4.12-10.67,0-1.57.7-3.13,2.44-3.13,4.12,0,3.42,9.22,14.09,9.22,1.28,0,4.47-.64,4.47-2.84,0-4.18-7.95-3.13-14.38-8.29-3.19-2.55-5.51-6.09-5.51-10.27Z"/>
      <path class="cls-1" d="M490.43,37.27c1.8-4,4.18-9.11,4.18-13.69,0-4,1.86-7.02,7.02-7.02s8.24,5.16,10.5,8.99c.99,1.68,9.74,19.43,11.83,24.19,1.91,4.41,5.05,1.74,5.05,5.05,0,4.23-8.24,4.06-11.14,4.06-8.29,0-13.28-.06-13.28-3.65,0-2.78,3.54-1.74,3.54-3.77,0-2.61-1.45-2.84-10.79-2.84-3.02,0-4.81.12-4.81,2.96,0,2.26,3.71.75,3.71,3.77,0,3.48-6.26,3.54-8.58,3.54-8.29,0-9.05-1.57-9.05-3.42,0-2.73,3.13-1.91,4.81-4,1.28-1.57,2.49-4.35,3.36-6.21l3.65-7.95ZM502.61,41.45c.58,0,2.32.12,2.32-.75s-1.68-3.89-2.15-4.7c-.52-.93-1.51-3.07-2.78-3.07-1.39,0-2.38,3.48-2.61,4.12-.23.64-1.22,2.9-1.22,3.6,0,.99,1.45.81,2.09.81h4.35Z"/>
      <path class="cls-1" d="M545.88,58.21c-1.86,0-4.81.12-4.81-2.55,0-3.6,4.52-.58,4.7-7.31.12-4.23.12-7.95.12-11.37s-.29-6.73-.41-9.98c-.12-4.87-5.22-2.32-5.22-5.63,0-4.23,9.11-4.47,11.95-4.47,11.6,0,12.18,1.97,12.18,3.94,0,3.36-4.58.81-4.58,6.26v18.44c0,4.18.7,6.21,4.81,6.21,9.86,0,6.5-8.06,10.21-8.06,2.61,0,3.6,2.78,3.6,4.99,0,4.52-3.25,10.32-5.92,10.32-1.04,0-1.86-.23-2.9-.41-1.1-.23-2.38-.41-4.35-.41h-19.37Z"/>
      <path class="cls-1" d="M600.28,37.27c1.8-4,4.18-9.11,4.18-13.69,0-4,1.86-7.02,7.02-7.02s8.24,5.16,10.5,8.99c.99,1.68,9.74,19.43,11.83,24.19,1.91,4.41,5.05,1.74,5.05,5.05,0,4.23-8.24,4.06-11.14,4.06-8.29,0-13.28-.06-13.28-3.65,0-2.78,3.54-1.74,3.54-3.77,0-2.61-1.45-2.84-10.79-2.84-3.02,0-4.81.12-4.81,2.96,0,2.26,3.71.75,3.71,3.77,0,3.48-6.26,3.54-8.58,3.54-8.29,0-9.05-1.57-9.05-3.42,0-2.73,3.13-1.91,4.81-4,1.28-1.57,2.49-4.35,3.36-6.21l3.65-7.95ZM612.46,41.45c.58,0,2.32.12,2.32-.75s-1.68-3.89-2.15-4.7c-.52-.93-1.51-3.07-2.78-3.07-1.39,0-2.38,3.48-2.61,4.12-.23.64-1.22,2.9-1.22,3.6,0,.99,1.45.81,2.09.81h4.35Z"/>
      <path class="cls-1" d="M655.32,27.07c.12-5.97-4.23-3.07-4.23-6.84,0-2.67,3.36-3.07,5.39-3.07h18.91c16.12,0,21.4,9.98,21.4,20.42s-6.32,20.94-21,20.94c-2.49,0-4.58-.06-6.38-.17-1.8-.06-3.36-.12-4.99-.12s-3.31.06-4.93.12c-1.62.12-3.25.17-4.93.17-1.97,0-4.47-.99-4.47-3.31,0-4.18,4.58.46,4.76-8l.46-20.13ZM669.24,48.29c0,2.96.46,4.18,3.6,4.18,7.31,0,8.58-7.48,8.58-13.28,0-13.57-5.1-15.72-9.57-15.72-2.44,0-2.61.99-2.61,3.19v21.63Z"/>
    </g>
    <g>
      <path class="cls-1" d="M163.02,73.89c5.36,0,6.12-.8,6.76-.8,2.28,0,3.24,3.92,3.24,5.68,0,1.32-.52,2.88-2.08,2.88-3.16,0-.6-3.84-8.2-3.84-4.44,0-4,.8-4,5.4,0,2.32.12,2.4,2.56,2.4,3.04,0,.76-4.44,3.6-4.44,2.32,0,2.48,4.52,2.48,6.08,0,1.64-.28,6.44-2.68,6.44s0-4.2-4.04-4.2c-1.68,0-1.64,1.52-1.64,2.8,0,5.84.4,5.56,4.6,5.56,8.2,0,5.88-5.64,9.16-5.64,1.28,0,1.92,1.44,1.92,2.56,0,2.72-2.16,7.6-3.76,7.6-.28,0-.92-.12-1.76-.24-.88-.08-2-.2-3.36-.2h-16.44c-2.64,0-2.68-1.2-2.68-1.72,0-2.2,2.72-.44,3-4.68.48-7.28.52-6.56.12-13.8-.28-6.12-3.32-2.96-3.32-5.8,0-2.44,3.36-2.04,5-2.04h11.52Z"/>
      <path class="cls-1" d="M199.26,98.89c-.84,1.64-1.64,3.48-3.8,3.48-2.32,0-2.92-1.32-3.8-3.2l-7.96-17.6c-1.2-2.6-1.56-3.08-3.12-3.32-.8-.12-1.2-.72-1.2-1.56,0-3.08,6.36-3.24,8.4-3.24,8.4,0,8.08,2,8.08,2.6,0,1.52-1.92,1.6-1.92,2.68,0,.84,1.56,3.96,2.52,6.04.36.68.8,2.24,1.68,2.28,1.32.08,2-2.16,2.48-3,.48-.96,2.32-4.56,2.32-5.52,0-1.44-2.04-1.04-2.04-2.64,0-2.48,5.04-2.44,6.64-2.44,5.04,0,5.88.92,5.88,2.32,0,1.08-.8,1.6-1.76,1.72-1.72.2-1.88.08-3.4,3.16l-9,18.24Z"/>
      <path class="cls-1" d="M234.62,73.89c5.36,0,6.12-.8,6.76-.8,2.28,0,3.24,3.92,3.24,5.68,0,1.32-.52,2.88-2.08,2.88-3.16,0-.6-3.84-8.2-3.84-4.44,0-4,.8-4,5.4,0,2.32.12,2.4,2.56,2.4,3.04,0,.76-4.44,3.6-4.44,2.32,0,2.48,4.52,2.48,6.08,0,1.64-.28,6.44-2.68,6.44s0-4.2-4.04-4.2c-1.68,0-1.64,1.52-1.64,2.8,0,5.84.4,5.56,4.6,5.56,8.2,0,5.88-5.64,9.16-5.64,1.28,0,1.92,1.44,1.92,2.56,0,2.72-2.16,7.6-3.76,7.6-.28,0-.92-.12-1.76-.24-.88-.08-2-.2-3.36-.2h-16.44c-2.64,0-2.68-1.2-2.68-1.72,0-2.2,2.72-.44,3-4.68.48-7.28.52-6.56.12-13.8-.28-6.12-3.32-2.96-3.32-5.8,0-2.44,3.36-2.04,5-2.04h11.52Z"/>
      <path class="cls-1" d="M272.94,83.53c.48.4,1.76,1.56,2.48,1.56,1,0,1.04-1.64,1.04-2.32,0-1-.04-2.72-.36-3.64-.56-1.68-2.68-1.08-2.68-3.24,0-2.56,4.08-2.44,5.76-2.44s6.12-.2,6.12,2.56c0,2.28-2.12,1.44-2.8,3.28-.52,1.44-.52,3.92-.52,5.44v10.36c0,1.8.24,7.28-2.44,7.28-.8,0-1.48-.48-2.08-1l-12.36-11.08c-.56-.52-1.6-1.48-2.44-1.48-1.24,0-1.28,2.6-1.28,3.44,0,1.12.04,2.6.28,3.64.6,2.56,2.72,1.6,2.72,3.56,0,2.68-4.12,2.92-6,2.92s-5.96-.24-5.96-2.84c0-2.12,2.32-1.28,2.72-3.84.28-1.72.36-4.24.36-6.04,0-2.88,0-5.8-.44-8.68-.64-4-3.52-2.44-3.52-4.84,0-2.84,5.4-2.68,7.2-2.68,2.48,0,2.92.16,4.72,1.76l9.48,8.32Z"/>
      <path class="cls-1" d="M310.21,73.89c1.72,0,2.52-.16,3.12-.28.56-.16.88-.28,1.64-.28,1.56,0,4.8,3.08,4.8,7.4,0,2-1.04,3.32-3.08,3.32-3.48,0-3.44-4.72-5.48-4.72-1.56,0-1.4,2.16-1.4,2.48v12.28c0,4.76,3.68,2.48,3.68,5.28,0,1.24-.76,3-8.24,3-2.04,0-9.52.08-9.52-3,0-2.12,2.48-1.28,3.28-2.8.4-.84.56-3.24.6-4.24l.32-8.84c.16-4.2-.68-4.16-1.24-4.16-1.8,0-2.68,4.72-5.92,4.72-1.56,0-2.48-1.44-2.48-2.88,0-3.4,2.88-7.84,5.16-7.84.28,0,.72.12,1.48.28.76.12,1.84.28,3.44.28h9.84Z"/>
      <path class="cls-1" d="M325.78,82.65c0-4.16,4-9.32,11.76-9.32,2.56,0,5.44,1.12,6.04,1.12.56,0,1.12-.56,1.96-.56,1.36,0,4.4,3.08,4.4,6.44,0,1.36-.88,2.72-2.36,2.72-2.68,0-4.24-4.56-8.4-4.56-1.24,0-2.56.56-2.56,2,0,3.16,5.48,2.32,10.12,5.4,2.48,1.64,3.72,3.64,3.72,6.64,0,4.68-3.84,9.96-13.16,9.96-2.64,0-7.16-.68-9.44-1.92-1.92-1.08-2.84-5.32-2.84-7.36,0-1.08.48-2.16,1.68-2.16,2.84,0,2.36,6.36,9.72,6.36.88,0,3.08-.44,3.08-1.96,0-2.88-5.48-2.16-9.92-5.72-2.2-1.76-3.8-4.2-3.8-7.08Z"/>
      <path class="cls-1" d="M389.25,73.33c3.92,0,6.44,1.96,7.48,1.96.88,0,1.12-.28,1.8-.28,1.68,0,3.84,2.52,3.84,6.96,0,2.28-1.36,4.2-3.72,4.2-4.12,0-3.08-7.08-10.2-7.08-3.08,0-4.36,2.88-4.36,5.08,0,5.92,3.16,10.96,8.76,10.96,5.08,0,5.84-2.76,7.08-2.76,1.16,0,1.72,1.36,1.72,2.36,0,1.76-1.84,5.44-3.84,5.44-1.36,0-4.16,2.32-8.88,2.32-8.4,0-15.28-6.64-15.28-14.68s7.72-14.48,15.6-14.48Z"/>
      <path class="cls-1" d="M408.3,87.81c0-8.48,6.76-14.48,15.48-14.48,11.04,0,15.28,9.72,15.28,14.88,0,8.6-7.6,14.28-15.76,14.28s-15-6.16-15-14.68ZM421.94,79.29c-2.24,0-3.36,2.32-3.36,4.28,0,3.4,2.4,12.96,6.72,12.96,2.44,0,3.48-2.12,3.48-4.28,0-3.64-2.16-12.96-6.84-12.96Z"/>
      <path class="cls-1" d="M448.9,101.93c-1.28,0-3.32.08-3.32-1.76,0-2.48,3.12-.4,3.24-5.04.08-2.92.08-5.48.08-7.84s-.2-4.64-.28-6.88c-.08-3.36-3.6-1.6-3.6-3.88,0-2.92,6.28-3.08,8.24-3.08,8,0,8.4,1.36,8.4,2.72,0,2.32-3.16.56-3.16,4.32v12.72c0,2.88.48,4.28,3.32,4.28,6.8,0,4.48-5.56,7.04-5.56,1.8,0,2.48,1.92,2.48,3.44,0,3.12-2.24,7.12-4.08,7.12-.72,0-1.28-.16-2-.28-.76-.16-1.64-.28-3-.28h-13.36Z"/>
      <path class="cls-1" d="M479.9,101.93c-1.28,0-3.32.08-3.32-1.76,0-2.48,3.12-.4,3.24-5.04.08-2.92.08-5.48.08-7.84s-.2-4.64-.28-6.88c-.08-3.36-3.6-1.6-3.6-3.88,0-2.92,6.28-3.08,8.24-3.08,8,0,8.4,1.36,8.4,2.72,0,2.32-3.16.56-3.16,4.32v12.72c0,2.88.48,4.28,3.32,4.28,6.8,0,4.48-5.56,7.04-5.56,1.8,0,2.48,1.92,2.48,3.44,0,3.12-2.24,7.12-4.08,7.12-.72,0-1.28-.16-2-.28-.76-.16-1.64-.28-3-.28h-13.36Z"/>
      <path class="cls-1" d="M523.53,73.89c5.36,0,6.12-.8,6.76-.8,2.28,0,3.24,3.92,3.24,5.68,0,1.32-.52,2.88-2.08,2.88-3.16,0-.6-3.84-8.2-3.84-4.44,0-4,.8-4,5.4,0,2.32.12,2.4,2.56,2.4,3.04,0,.76-4.44,3.6-4.44,2.32,0,2.48,4.52,2.48,6.08,0,1.64-.28,6.44-2.68,6.44s0-4.2-4.04-4.2c-1.68,0-1.64,1.52-1.64,2.8,0,5.84.4,5.56,4.6,5.56,8.2,0,5.88-5.64,9.16-5.64,1.28,0,1.92,1.44,1.92,2.56,0,2.72-2.16,7.6-3.76,7.6-.28,0-.92-.12-1.76-.24-.88-.08-2-.2-3.36-.2h-16.44c-2.64,0-2.68-1.2-2.68-1.72,0-2.2,2.72-.44,3-4.68.48-7.28.52-6.56.12-13.8-.28-6.12-3.32-2.96-3.32-5.8,0-2.44,3.36-2.04,5-2.04h11.52Z"/>
      <path class="cls-1" d="M556.45,73.33c3.92,0,6.44,1.96,7.48,1.96.88,0,1.12-.28,1.8-.28,1.68,0,3.84,2.52,3.84,6.96,0,2.28-1.36,4.2-3.72,4.2-4.12,0-3.08-7.08-10.2-7.08-3.08,0-4.36,2.88-4.36,5.08,0,5.92,3.16,10.96,8.76,10.96,5.08,0,5.84-2.76,7.08-2.76,1.16,0,1.72,1.36,1.72,2.36,0,1.76-1.84,5.44-3.84,5.44-1.36,0-4.16,2.32-8.88,2.32-8.4,0-15.28-6.64-15.28-14.68s7.72-14.48,15.6-14.48Z"/>
      <path class="cls-1" d="M594.45,73.89c1.72,0,2.52-.16,3.12-.28.56-.16.88-.28,1.64-.28,1.56,0,4.8,3.08,4.8,7.4,0,2-1.04,3.32-3.08,3.32-3.48,0-3.44-4.72-5.48-4.72-1.56,0-1.4,2.16-1.4,2.48v12.28c0,4.76,3.68,2.48,3.68,5.28,0,1.24-.76,3-8.24,3-2.04,0-9.52.08-9.52-3,0-2.12,2.48-1.28,3.28-2.8.4-.84.56-3.24.6-4.24l.32-8.84c.16-4.2-.68-4.16-1.24-4.16-1.8,0-2.68,4.72-5.92,4.72-1.56,0-2.48-1.44-2.48-2.88,0-3.4,2.88-7.84,5.16-7.84.28,0,.72.12,1.48.28.76.12,1.84.28,3.44.28h9.84Z"/>
      <path class="cls-1" d="M612.29,85.93c0-5.08-.4-6.24-.84-6.8-.92-1.16-2.48-1.28-2.48-2.8,0-2.88,8.16-2.88,8.96-2.88,2.4,0,7.32.08,7.32,2.8,0,1.44-1.52,1.36-2.44,2.4-.76.88-.8,4.48-.8,7.28v3.96c0,7.12.48,6.96,1.28,7.44,1,.6,1.96.8,1.96,2.04s-.36,3-9.12,3c-1.68,0-6.72-.04-6.72-2.6,0-1.28,1.36-1.48,2-2.24.48-.56.88-2.04.88-7.64v-3.96Z"/>
      <path class="cls-1" d="M650.09,98.89c-.84,1.64-1.64,3.48-3.8,3.48-2.32,0-2.92-1.32-3.8-3.2l-7.96-17.6c-1.2-2.6-1.56-3.08-3.12-3.32-.8-.12-1.2-.72-1.2-1.56,0-3.08,6.36-3.24,8.4-3.24,8.4,0,8.08,2,8.08,2.6,0,1.52-1.92,1.6-1.92,2.68,0,.84,1.56,3.96,2.52,6.04.36.68.8,2.24,1.68,2.28,1.32.08,2-2.16,2.48-3,.48-.96,2.32-4.56,2.32-5.52,0-1.44-2.04-1.04-2.04-2.64,0-2.48,5.04-2.44,6.64-2.44,5.04,0,5.88.92,5.88,2.32,0,1.08-.8,1.6-1.76,1.72-1.72.2-1.88.08-3.4,3.16l-9,18.24Z"/>
      <path class="cls-1" d="M685.45,73.89c5.36,0,6.12-.8,6.76-.8,2.28,0,3.24,3.92,3.24,5.68,0,1.32-.52,2.88-2.08,2.88-3.16,0-.6-3.84-8.2-3.84-4.44,0-4,.8-4,5.4,0,2.32.12,2.4,2.56,2.4,3.04,0,.76-4.44,3.6-4.44,2.32,0,2.48,4.52,2.48,6.08,0,1.64-.28,6.44-2.68,6.44s0-4.2-4.04-4.2c-1.68,0-1.64,1.52-1.64,2.8,0,5.84.4,5.56,4.6,5.56,8.2,0,5.88-5.64,9.16-5.64,1.28,0,1.92,1.44,1.92,2.56,0,2.72-2.16,7.6-3.76,7.6-.28,0-.92-.12-1.76-.24-.88-.08-2-.2-3.36-.2h-16.44c-2.64,0-2.68-1.2-2.68-1.72,0-2.2,2.72-.44,3-4.68.48-7.28.52-6.56.12-13.8-.28-6.12-3.32-2.96-3.32-5.8,0-2.44,3.36-2.04,5-2.04h11.52Z"/>
    </g>
  </g>
</svg>